<svg width="360" height="360" viewBox="0 0 360 360" fill="none" xmlns="http://www.w3.org/2000/svg">
<path d="M26.2652 181.663H13C39.5928 151.574 101.487 152.687 129.109 157.005C195.903 108.064 300.1 145.144 343.849 169.802L344.786 172.299L345.878 172.455C347.283 174.796 346.97 179.009 346.97 181.038L345.566 180.882V182.287L327.931 178.541L323.093 166.681C279.646 154.445 245.479 158.878 233.826 162.623C249.932 154.508 270.709 153.624 279.084 154.196C209.418 122.734 157.356 145.925 142.843 158.409C173.431 165.776 205.891 170.166 217.908 171.206C187.445 171.581 147.473 166.993 131.294 164.652C75.9862 155.039 38.2299 171.987 26.2652 181.663Z" fill="#FF0300"/>
<path d="M84.1624 225.827L73.082 200.077H81.0411L87.7518 216.307L94.3063 200.077H101.953L90.7169 225.827H84.1624Z" fill="white"/>
<path fill-rule="evenodd" clip-rule="evenodd" d="M122.554 211.001C118.653 208.504 106.074 207.099 105.075 217.711C105.023 220.625 106.823 226.451 114.439 226.451C116.312 226.555 120.65 225.983 123.022 222.861C123.959 224.786 127.236 227.949 132.854 225.202V219.74C131.97 220.104 129.577 220.364 129.577 218.336V209.128C129.577 206.163 128.859 200.857 120.369 199.608C118.34 199.192 113.066 198.984 108.197 201.481V207.567C109.445 206.787 112.785 205.258 116.156 205.383C120.369 205.539 122.554 207.099 122.554 211.001ZM122.397 215.683V218.024C121.304 220.521 112.877 222.706 112.253 217.244C112.253 213.966 118.339 212.562 122.397 215.683Z" fill="white"/>
<path d="M69.337 189.621V196.487H50.6097V203.198H65.5915V209.909H50.6097V218.96H69.9612V225.827H42.8066V209.909L49.8294 203.198H42.8066V189.621H69.337Z" fill="#FF0300"/>
<path d="M148.303 225.671V189.777H155.482V203.667L168.435 189.777H177.642L162.348 206.32L179.983 225.671H170.619L155.482 209.129V225.671H148.303Z" fill="white"/>
<path d="M224.93 225.827L213.85 200.077H221.809L228.519 216.307L235.074 200.077H242.721L231.484 225.827H224.93Z" fill="white"/>
<path fill-rule="evenodd" clip-rule="evenodd" d="M196.369 226.451C204.299 226.451 210.727 220.373 210.727 212.874C210.727 205.376 204.299 199.297 196.369 199.297C188.44 199.297 182.012 205.376 182.012 212.874C182.012 220.373 188.44 226.451 196.369 226.451ZM196.369 220.209C200.334 220.209 203.548 216.925 203.548 212.874C203.548 208.823 200.334 205.539 196.369 205.539C192.405 205.539 189.191 208.823 189.191 212.874C189.191 216.925 192.405 220.209 196.369 220.209Z" fill="white"/>
<path d="M248.34 225.671V200.077H255.519V204.135C257.891 200.015 263.166 199.297 265.35 199.453V206.632C260.232 205.383 256.559 208.713 255.519 210.533V225.671H248.34Z" fill="white"/>
<path d="M271.904 200.233H279.394V225.827H271.904V200.233Z" fill="white"/>
<path d="M280.019 193.367C280.019 195.78 278.062 197.736 275.649 197.736C273.236 197.736 271.279 195.78 271.279 193.367C271.279 190.953 273.236 188.997 275.649 188.997C278.062 188.997 280.019 190.953 280.019 193.367Z" fill="white"/>
<path d="M305.612 225.671L295.312 214.435V209.285L304.051 199.921H313.259L302.022 211.626L314.975 225.671H305.612Z" fill="white"/>
<path d="M288.133 189.933H295.624V225.827H288.133V189.933Z" fill="white"/>
</svg>
