<?xml version="1.0" standalone="no"?>
<!DOCTYPE svg PUBLIC "-//W3C//DTD SVG 20010904//EN"
 "http://www.w3.org/TR/2001/REC-SVG-20010904/DTD/svg10.dtd">
<svg version="1.0" xmlns="http://www.w3.org/2000/svg"
 width="700.000000pt" height="700.000000pt" viewBox="0 0 700.000000 700.000000"
 preserveAspectRatio="xMidYMid meet">
<metadata>
Created by potrace 1.11, written by Peter Selinger 2001-2013
</metadata>
<g transform="translate(0.000000,700.000000) scale(0.100000,-0.100000)"
fill="#000000" stroke="none">
<path d="M3955 4413 c-537 -25 -977 -156 -1347 -398 l-98 -65 -123 16 c-168
21 -635 30 -812 15 -568 -47 -995 -198 -1247 -440 l-73 -70 129 -1 128 0 69
46 c90 60 268 143 401 187 301 101 595 147 948 147 199 0 323 -10 565 -45 502
-72 1056 -121 1475 -130 l235 -5 -215 30 c-300 41 -604 93 -885 151 -280 57
-318 67 -310 80 13 20 133 94 234 145 303 151 658 227 1056 227 296 0 518 -31
818 -113 198 -55 581 -200 481 -183 -41 7 -296 -14 -404 -32 -118 -21 -258
-59 -346 -96 -41 -17 -73 -33 -72 -35 2 -2 28 3 58 11 150 40 269 50 580 50
308 0 358 -4 620 -46 131 -21 425 -86 449 -99 7 -4 35 -58 60 -121 l47 -113
169 -35 c123 -25 170 -32 173 -23 2 7 10 12 18 12 10 0 14 13 14 48 0 61 -17
122 -34 122 -8 0 -17 11 -20 24 -14 57 -543 301 -958 442 -508 173 -966 266
-1448 294 -168 9 -203 10 -335 3z"/>
<path d="M837 3314 c-4 -4 -7 -65 -7 -136 l0 -128 67 0 67 0 -67 -68 -67 -68
0 -152 0 -152 265 0 265 0 0 65 0 65 -185 0 -185 0 0 90 0 90 145 0 145 0 0
65 0 65 -145 0 -145 0 0 65 0 65 180 0 181 0 -3 68 -3 67 -251 3 c-138 1 -253
-1 -257 -4z"/>
</g>
</svg>
