<svg width="20" height="20" viewBox="0 0 20 20" fill="none" xmlns="http://www.w3.org/2000/svg">
<path d="M13.5643 11.7659L10.7758 9.67449V5.41426C10.7758 4.9859 10.4295 4.63965 10.0012 4.63965C9.57281 4.63965 9.22656 4.9859 9.22656 5.41426V10.0618C9.22656 10.3058 9.34121 10.5359 9.53641 10.6815L12.6348 13.0053C12.7742 13.1099 12.9369 13.1602 13.0988 13.1602C13.335 13.1602 13.5674 13.0541 13.7192 12.8496C13.9765 12.508 13.9067 12.0223 13.5643 11.7659Z" fill="white"/>
<path d="M10 0C4.48566 0 0 4.48566 0 10C0 15.5143 4.48566 20 10 20C15.5143 20 20 15.5143 20 10C20 4.48566 15.5143 0 10 0ZM10 18.4508C5.34082 18.4508 1.54918 14.6592 1.54918 10C1.54918 5.34082 5.34082 1.54918 10 1.54918C14.66 1.54918 18.4508 5.34082 18.4508 10C18.4508 14.6592 14.6592 18.4508 10 18.4508Z" fill="white"/>
</svg>
