<svg width="31" height="31" viewBox="0 0 31 31" fill="none" xmlns="http://www.w3.org/2000/svg">
<path d="M30.2793 8.9249C30.2082 7.31194 29.9473 6.20305 29.5736 5.24218C29.188 4.22223 28.5949 3.30908 27.8178 2.54997C27.0585 1.77905 26.1392 1.18001 25.1309 0.800573C24.1643 0.426926 23.0609 0.166091 21.4477 0.0949753C19.8224 0.0178368 19.3064 0 15.1841 0C11.0619 0 10.5459 0.0178368 8.92661 0.0889525C7.31334 0.160068 6.20423 0.421135 5.24341 0.79455C4.22304 1.18001 3.30971 1.77303 2.55046 2.54997C1.77939 3.30908 1.18047 4.22826 0.800725 5.23638C0.427007 6.20305 0.166123 7.30592 0.0949934 8.91888C0.0178402 10.5439 0 11.0598 0 15.1812C0 19.3027 0.0178402 19.8186 0.0889695 21.4376C0.160099 23.0505 0.421215 24.1594 0.794933 25.1203C1.18047 26.1402 1.77939 27.0534 2.55046 27.8125C3.30971 28.5834 4.22906 29.1824 5.23738 29.5619C6.20423 29.9355 7.30731 30.1964 8.92081 30.2675C10.5399 30.3388 11.0561 30.3564 15.1783 30.3564C19.3006 30.3564 19.8166 30.3388 21.4359 30.2675C23.0491 30.1964 24.1582 29.9355 25.1191 29.5619C27.1596 28.7731 28.7728 27.1602 29.5617 25.1203C29.9352 24.1536 30.1963 23.0505 30.2675 21.4376C30.3386 19.8186 30.3564 19.3027 30.3564 15.1812C30.3564 11.0598 30.3504 10.5439 30.2793 8.9249ZM27.5451 21.319C27.4798 22.8015 27.2307 23.6021 27.0231 24.1358C26.5129 25.4583 25.4631 26.5079 24.1404 27.0179C23.6066 27.2255 22.8001 27.4745 21.323 27.5396C19.7216 27.611 19.2413 27.6286 15.1902 27.6286C11.139 27.6286 10.6527 27.611 9.05705 27.5396C7.57422 27.4745 6.7735 27.2255 6.23968 27.0179C5.58145 26.7747 4.98229 26.3892 4.49597 25.8852C3.99181 25.3929 3.60628 24.7999 3.363 24.1418C3.1554 23.6081 2.90634 22.8015 2.84123 21.325C2.76987 19.7238 2.75226 19.2434 2.75226 15.193C2.75226 11.1427 2.76987 10.6565 2.84123 9.06134C2.90634 7.5788 3.1554 6.77823 3.363 6.24451C3.60628 5.58617 3.99181 4.98736 4.502 4.5009C4.99411 3.99684 5.58724 3.61138 6.2457 3.36838C6.77952 3.16083 7.58627 2.9118 9.06307 2.84648C10.6645 2.77536 11.1451 2.75753 15.1959 2.75753C19.2531 2.75753 19.7334 2.77536 21.329 2.84648C22.8119 2.9118 23.6126 3.16083 24.1464 3.36838C24.8046 3.61138 25.4038 3.99684 25.8901 4.5009C26.3943 4.99316 26.7798 5.58617 27.0231 6.24451C27.2307 6.77823 27.4798 7.58459 27.5451 9.06134C27.6162 10.6625 27.6341 11.1427 27.6341 15.193C27.6341 19.2434 27.6162 19.7178 27.5451 21.319Z" fill="#FF0300"/>
<path d="M15.1844 7.383C10.8784 7.383 7.38477 10.8758 7.38477 15.1812C7.38477 19.4866 10.8784 22.9793 15.1844 22.9793C19.4906 22.9793 22.9841 19.4866 22.9841 15.1812C22.9841 10.8758 19.4906 7.383 15.1844 7.383ZM15.1844 20.2396C12.3909 20.2396 10.125 17.9744 10.125 15.1812C10.125 12.388 12.3909 10.1227 15.1844 10.1227C17.9782 10.1227 20.2439 12.388 20.2439 15.1812C20.2439 17.9744 17.9782 20.2396 15.1844 20.2396Z" fill="#FF0300"/>
<path d="M25.1146 7.07623C25.1146 8.08178 24.2993 8.8971 23.2935 8.8971C22.288 8.8971 21.4727 8.08178 21.4727 7.07623C21.4727 6.07046 22.288 5.25537 23.2935 5.25537C24.2993 5.25537 25.1146 6.07046 25.1146 7.07623Z" fill="#FF0300"/>
</svg>
