<svg width="200" height="56" viewBox="0 0 200 56" fill="none" xmlns="http://www.w3.org/2000/svg">
<path d="M7.94322 29.1392H0C15.9238 11.1221 52.986 11.7887 69.5266 14.3742C109.523 -14.9316 171.916 7.272 198.113 22.0371L198.674 23.5322L199.328 23.6257C200.169 25.0274 199.982 27.5506 199.982 28.7654L199.141 28.672V29.513L188.581 27.2702L185.685 20.1681C159.668 12.8416 139.209 15.4956 132.231 17.7384C141.875 12.879 154.317 12.3494 159.332 12.6921C117.616 -6.14737 86.4409 7.73925 77.7501 15.2152C96.0663 19.6261 115.504 22.2551 122.699 22.8781C104.458 23.1024 80.5225 20.355 70.8349 18.9532C37.7163 13.1967 15.1077 23.3453 7.94322 29.1392Z" fill="#FF0300"/>
<path d="M42.6115 55.5852L35.9766 40.166H40.7425L44.7608 49.8848L48.6857 40.166H53.2648L46.5364 55.5852H42.6115Z" fill="white"/>
<path fill-rule="evenodd" clip-rule="evenodd" d="M65.5998 46.7075C63.2636 45.2123 55.7315 44.3713 55.1335 50.7258C55.1023 52.4702 56.1801 55.959 60.7404 55.959C61.8618 56.0213 64.4597 55.6787 65.8802 53.8097C66.4409 54.9622 68.4033 56.8561 71.7675 55.2114V51.9407C71.2379 52.1587 69.805 52.3145 69.805 51.0996V45.5861C69.805 43.8106 69.3752 40.6333 64.2915 39.8857C63.0767 39.6365 59.9181 39.5119 57.0024 41.0071V44.6516C57.75 44.1844 59.7499 43.2686 61.7684 43.3433C64.2915 43.4368 65.5998 44.3713 65.5998 46.7075ZM65.5058 49.5112V50.9129C64.8517 52.4081 59.8054 53.7164 59.4316 50.4457C59.4316 48.4832 63.0762 47.6422 65.5058 49.5112Z" fill="white"/>
<path d="M33.7341 33.9048V38.0166H22.5201V42.0349H31.4913V46.0532H22.5201V51.4733H34.1079V55.5851H17.8477V46.0532L22.0529 42.0349H17.8477V33.9048H33.7341Z" fill="#FF0300"/>
<path d="M81.0195 55.492V33.9985H85.3182V42.3156L93.0745 33.9985H98.5881L89.43 43.9042L99.9898 55.492H94.3828L85.3182 45.5863V55.492H81.0195Z" fill="white"/>
<path d="M126.904 55.5852L120.27 40.166H125.035L129.054 49.8848L132.979 40.166H137.558L130.829 55.5852H126.904Z" fill="white"/>
<path fill-rule="evenodd" clip-rule="evenodd" d="M109.802 55.959C114.551 55.959 118.4 52.319 118.4 47.8289C118.4 43.3387 114.551 39.6987 109.802 39.6987C105.054 39.6987 101.205 43.3387 101.205 47.8289C101.205 52.319 105.054 55.959 109.802 55.959ZM109.802 52.221C112.177 52.221 114.101 50.2546 114.101 47.8289C114.101 45.4031 112.177 43.4367 109.802 43.4367C107.428 43.4367 105.504 45.4031 105.504 47.8289C105.504 50.2546 107.428 52.221 109.802 52.221Z" fill="white"/>
<path d="M140.922 55.4919V40.1662H145.221V42.5959C146.641 40.1288 149.8 39.6989 151.108 39.7924V44.0911C148.043 43.3435 145.844 45.337 145.221 46.4273V55.4919H140.922Z" fill="white"/>
<path d="M155.032 40.2596H159.518V55.5854H155.032V40.2596Z" fill="white"/>
<path d="M159.891 36.1478C159.891 37.5929 158.72 38.7644 157.275 38.7644C155.83 38.7644 154.658 37.5929 154.658 36.1478C154.658 34.7027 155.83 33.5312 157.275 33.5312C158.72 33.5312 159.891 34.7027 159.891 36.1478Z" fill="white"/>
<path d="M175.216 55.4918L169.049 48.7634V45.6796L174.282 40.0726H179.795L173.067 47.0813L180.823 55.4918H175.216Z" fill="white"/>
<path d="M164.75 34.0918H169.236V55.5852H164.75V34.0918Z" fill="white"/>
</svg>
