<svg width="51" height="30" viewBox="0 0 51 30" fill="none" xmlns="http://www.w3.org/2000/svg">
<path d="M35.7473 0.0615239C31.9085 0.0625522 28.4095 1.5206 25.7723 3.91538C23.1331 1.52369 19.6361 0.0646089 15.8014 0.0646089C15.7696 0.0646089 15.7368 0.0646089 15.706 0.0646089C7.54009 0.118078 0.927734 6.77492 0.927734 14.969C0.927734 23.196 7.5914 29.8723 15.8004 29.8723C19.635 29.8723 23.1321 28.4153 25.7703 26.0216C25.2192 25.5229 24.7205 24.9707 24.2495 24.3928H27.3207C26.8579 24.9614 26.3531 25.4941 25.8103 25.9897H25.8082C25.7959 26.0031 25.7826 26.0103 25.7703 26.0216C28.4105 28.4174 31.9116 29.8785 35.7524 29.8775C43.9666 29.8744 50.623 23.199 50.621 14.969C50.621 14.9659 50.621 14.9638 50.621 14.9618C50.622 6.73173 43.9614 0.0594674 35.7473 0.0615239ZM24.4199 5.45466H27.2469C27.6635 5.96055 28.0503 6.49318 28.4012 7.05049H23.3578C23.6831 6.51786 24.0402 5.96981 24.4199 5.45466ZM22.4795 8.61547H29.2591C29.5002 9.13165 29.7137 9.66531 29.9004 10.2123H21.676C21.7581 10.0581 22.0454 9.43704 22.4795 8.61547ZM6.99932 18.7653L7.90129 13.0667L5.86648 18.7653H4.77571L4.6341 13.0667L3.67057 18.7653H2.14267L3.40891 11.2077H5.71974L5.80081 15.845L7.36155 11.2077H9.86837L8.61958 18.7653H6.99932ZM12.4019 18.7529L12.4542 18.1493C12.4296 18.1524 11.9473 18.8784 10.8299 18.8784C10.245 18.8784 9.30093 18.5586 9.30093 17.1684C9.30093 15.4008 10.7396 14.8147 12.1094 14.8147C12.3249 14.8147 12.7898 14.8538 12.7898 14.8538C12.7898 14.8538 12.8421 14.7459 12.8421 14.4538C12.8421 13.9736 12.4111 13.9078 11.8211 13.9078C10.7816 13.9078 10.0951 14.1865 10.0951 14.1865L10.325 12.8189C10.325 12.8189 11.1582 12.4693 12.2428 12.4693C12.8041 12.4693 14.4182 12.529 14.4182 14.3829L13.7964 18.7529H12.4019ZM18.2949 16.828C18.2949 18.937 16.256 18.8465 15.8999 18.8465C14.5711 18.8465 14.1607 18.6624 14.1227 18.6521L14.3341 17.264C14.3361 17.2517 15.0011 17.5057 15.7409 17.5057C16.1678 17.5057 16.7219 17.4635 16.7219 16.9525C16.7219 16.1875 14.7394 16.3705 14.7394 14.5536C14.7394 12.9505 15.9277 12.4817 17.0995 12.4817C18.0045 12.4817 18.5607 12.6061 18.5607 12.6061L18.3606 14.0065C18.3606 14.0065 17.5017 13.9356 17.2791 13.9356C16.7157 13.9356 16.4089 14.059 16.4089 14.4538C16.4079 15.2476 18.2949 14.859 18.2949 16.828ZM20.7433 17.3812C20.8838 17.3812 21.0429 17.3329 21.1517 17.3329L20.9536 18.6809C20.7946 18.7252 20.3441 18.8856 19.7664 18.8897C19.0286 18.8958 18.5043 18.4825 18.5043 17.5447C18.5043 16.9154 19.4042 11.73 19.4391 11.6961H21.0224L20.8613 12.6236H21.6514L21.4492 14.1176H20.6109L20.1656 16.8702C20.1317 17.0892 20.1922 17.3812 20.7433 17.3812ZM24.2259 12.4488C25.9642 12.4488 26.4844 13.7238 26.4844 14.7695C26.4844 15.188 26.2751 16.2162 26.2751 16.2162H23.0572C23.0572 16.2162 22.7596 17.4861 24.4599 17.4861C25.2572 17.4861 26.1417 17.0954 26.1417 17.0954L25.8626 18.6244C25.8626 18.6244 25.3516 18.8856 24.19 18.8856C22.931 18.8856 21.4544 18.3519 21.4544 16.1103C21.4554 14.168 22.6334 12.4488 24.2259 12.4488ZM28.4197 22.8577H23.1434C22.8222 22.3435 22.5226 21.8161 22.265 21.2618H29.2868C29.0282 21.813 28.7388 22.3456 28.4197 22.8577ZM28.0657 18.7766H26.4403L27.4285 12.6256H28.903L28.7614 13.5171C28.7614 13.5171 29.2868 12.5475 29.9958 12.5475C30.2021 12.5475 30.3016 12.568 30.3016 12.568C30.0913 12.9978 29.9055 13.3917 29.7126 14.4086C28.6126 14.0179 28.5285 16.1494 28.0657 18.7766ZM34.2584 18.6809C34.2584 18.6809 33.4067 18.8989 32.8731 18.8989C30.983 18.8989 30.0235 17.592 30.0235 15.6127C30.0235 12.6277 31.8018 11.038 33.6294 11.038C34.4554 11.038 35.4128 11.4267 35.4128 11.4267L35.1542 13.1079C35.1542 13.1079 34.5067 12.6544 33.7012 12.6544C32.6238 12.6544 31.6571 13.6847 31.6571 15.5571C31.6571 16.4795 32.1076 17.3391 33.2322 17.3391C33.7669 17.3391 34.5416 16.9494 34.5416 16.9494L34.2584 18.6809ZM38.0704 18.756L38.1238 18.1483C38.0981 18.1514 37.6159 18.8773 36.4994 18.8773C35.9145 18.8773 34.9705 18.5576 34.9705 17.1674C34.9705 15.3998 36.4091 14.8137 37.778 14.8137C37.9935 14.8137 38.4593 14.8528 38.4593 14.8528C38.4593 14.8528 38.5127 14.7459 38.5127 14.4538C38.5127 13.9736 38.0817 13.9078 37.4907 13.9078C36.4512 13.9078 35.7658 14.1865 35.7658 14.1865L35.9956 12.8189C35.9956 12.8189 36.8288 12.4693 37.9145 12.4693C38.4747 12.4693 40.0898 12.529 40.0888 14.3829L39.467 18.7529C39.466 18.756 38.0704 18.756 38.0704 18.756ZM41.3612 18.7766H39.7358L40.724 12.6256H42.1996L42.058 13.5171C42.058 13.5171 42.5844 12.5475 43.2934 12.5475C43.4997 12.5475 43.5982 12.568 43.5982 12.568C43.3888 12.9978 43.2011 13.3917 43.0092 14.4086C41.9081 14.0179 41.824 16.1494 41.3612 18.7766ZM46.2138 18.7601L46.2825 18.1936C46.2825 18.1936 45.7571 18.8578 44.807 18.8578C43.4904 18.8578 42.845 17.5838 42.845 16.282C42.845 14.2688 44.0538 12.5135 45.5047 12.5135C46.4385 12.5156 47.0347 13.3413 47.0347 13.3413L47.3774 11.218L48.9648 11.2149L47.754 18.7601H46.2138ZM49.3455 18.5473C49.3034 18.6234 49.2439 18.682 49.168 18.7272C49.0931 18.7694 49.013 18.791 48.9289 18.791C48.8468 18.791 48.7678 18.7694 48.6919 18.7272C48.6159 18.682 48.5564 18.6234 48.5143 18.5473C48.4712 18.4702 48.4507 18.392 48.4507 18.3087C48.4507 18.2244 48.4723 18.1442 48.5143 18.0681C48.5564 17.992 48.619 17.9303 48.6939 17.8892C48.7719 17.847 48.8489 17.8254 48.9289 17.8254C49.011 17.8254 49.089 17.847 49.1649 17.8892C49.2429 17.9314 49.3024 17.99 49.3455 18.0681C49.3896 18.1452 49.4091 18.2254 49.4091 18.3087C49.4091 18.392 49.3886 18.4712 49.3455 18.5473Z" fill="white"/>
<path d="M49.2183 23.0952C49.208 23.088 49.1988 23.0767 49.1824 23.0705C49.1659 23.0643 49.1403 23.0613 49.1003 23.0613H49.0038V23.2155H49.1064C49.1546 23.2155 49.1865 23.2114 49.2049 23.1939C49.2224 23.1795 49.2306 23.162 49.2306 23.1373C49.2306 23.1209 49.2265 23.1096 49.2183 23.0952Z" fill="white"/>
<path d="M49.5497 23.0026C49.5056 22.9224 49.445 22.8659 49.3681 22.8237C49.2911 22.7816 49.2131 22.76 49.1331 22.76C49.051 22.76 48.973 22.7816 48.8971 22.8237C48.8212 22.8659 48.7586 22.9245 48.7165 23.0026C48.6724 23.0787 48.6529 23.1589 48.6529 23.2412C48.6529 23.3235 48.6744 23.4047 48.7165 23.4797C48.7606 23.5558 48.8201 23.6175 48.895 23.6597C48.971 23.7018 49.051 23.7234 49.1352 23.7234C49.2172 23.7234 49.2973 23.7018 49.3722 23.6597C49.4471 23.6175 49.5076 23.5558 49.5497 23.4797C49.5928 23.4047 49.6133 23.3245 49.6133 23.2412C49.6133 23.1579 49.5918 23.0777 49.5497 23.0026ZM49.2542 23.5085L49.209 23.4273C49.1731 23.3636 49.1434 23.3214 49.1208 23.3049C49.1064 23.2947 49.0838 23.2864 49.0551 23.2864H49.0069V23.5075H48.9227V22.9882H49.1013C49.1629 22.9882 49.207 22.9934 49.2316 23.0037C49.2593 23.014 49.2829 23.0284 49.2973 23.0541C49.3137 23.0777 49.3209 23.1034 49.3209 23.1301C49.3209 23.1682 49.3065 23.2001 49.2809 23.2299C49.2542 23.2566 49.2172 23.2741 49.1731 23.2772C49.1916 23.2834 49.206 23.2936 49.2172 23.3049C49.2388 23.3255 49.2634 23.3594 49.2942 23.4067L49.3578 23.5085H49.2542Z" fill="white"/>
<path d="M12.2377 15.9941C11.0772 15.9941 10.8422 16.5165 10.8422 16.9514C10.8422 17.1756 10.9704 17.5499 11.4619 17.5499C12.4152 17.5499 12.6133 16.2975 12.5825 16.0312C12.5373 16.0219 12.5086 15.9952 12.2377 15.9941Z" fill="white"/>
<path d="M24.2321 13.8688C23.3691 13.8688 23.2029 14.8528 23.2029 14.9566H24.9606C24.9606 14.8775 25.1258 13.8688 24.2321 13.8688Z" fill="white"/>
<path d="M45.7787 14.0405C45.082 14.0405 44.5309 14.8507 44.5319 16.0815C44.5319 16.8322 44.7987 17.3134 45.3693 17.3134C46.2271 17.3134 46.6406 16.1916 46.6406 15.3556C46.6406 14.4333 46.3482 14.0405 45.7787 14.0405Z" fill="white"/>
<path d="M49.2737 18.1092C49.2378 18.0455 49.1875 17.9961 49.1239 17.9601C49.0602 17.9242 48.9956 17.9067 48.9279 17.9067C48.8622 17.9067 48.7955 17.9252 48.7319 17.9601C48.6683 17.993 48.618 18.0445 48.5821 18.1092C48.5462 18.174 48.5277 18.2429 48.5277 18.3097C48.5277 18.3786 48.5462 18.4465 48.58 18.5092C48.618 18.573 48.6662 18.6213 48.7298 18.6593C48.7934 18.6943 48.8591 18.7149 48.9279 18.7149C48.9966 18.7149 49.0644 18.6943 49.1259 18.6593C49.1895 18.6234 49.2388 18.574 49.2757 18.5092C49.3116 18.4455 49.3281 18.3786 49.3281 18.3097C49.3281 18.2419 49.3096 18.174 49.2737 18.1092ZM49.051 18.574L49.0048 18.4938C48.9689 18.429 48.9402 18.3879 48.9186 18.3725C48.9012 18.3591 48.8807 18.3529 48.8509 18.3529H48.8037V18.573H48.7175V18.0547H48.8971C48.9576 18.0547 49.0028 18.0599 49.0284 18.0712C49.0541 18.0804 49.0767 18.0979 49.0941 18.1205C49.1115 18.1432 49.1177 18.1689 49.1177 18.1966C49.1177 18.2347 49.1033 18.2666 49.0767 18.2953C49.05 18.3252 49.013 18.3375 48.9699 18.3426C48.9905 18.3509 49.0038 18.3601 49.0141 18.3694C49.0356 18.391 49.0602 18.4218 49.09 18.4712L49.1536 18.574H49.051Z" fill="white"/>
<path d="M37.9083 15.9941C36.7478 15.9941 36.5128 16.5165 36.5128 16.9514C36.5128 17.1756 36.64 17.5499 37.1326 17.5499C38.0858 17.5499 38.2828 16.2975 38.2531 16.0312C38.2069 16.0219 38.1782 15.9952 37.9083 15.9941Z" fill="white"/>
<path d="M49.0161 18.1607C49.0079 18.1504 48.9966 18.1421 48.9812 18.1349C48.9638 18.1298 48.9381 18.1247 48.8971 18.1247L48.8037 18.1257V18.282H48.9053C48.9535 18.282 48.9853 18.2758 49.0048 18.2604C49.0202 18.245 49.0295 18.2254 49.0295 18.2028C49.0295 18.1853 49.0254 18.175 49.0161 18.1607Z" fill="white"/>
</svg>
