<svg width="60" height="20" viewBox="0 0 60 20" fill="none" xmlns="http://www.w3.org/2000/svg">
<path d="M23.8393 1.26573L20.8192 18.9888H25.6494L28.672 1.26573H23.8393Z" fill="white"/>
<path d="M16.7692 1.28561L12.0384 13.3723L11.534 11.5473C10.601 9.34834 7.95236 6.19034 4.84281 4.20012L9.1686 18.9801L14.2796 18.9714L21.8863 1.28189L16.7692 1.28561Z" fill="white"/>
<path d="M9.70032 2.55403C9.41955 1.47445 8.60583 1.15268 7.59581 1.11417H0.107038L0.0449219 1.46699C5.8727 2.88077 9.72889 6.28724 11.329 10.3832L9.70032 2.55403Z" fill="white"/>
<path d="M38.4615 4.66351C40.0418 4.63866 41.1872 4.98403 42.0767 5.34182L42.5128 5.54681L43.1662 1.70552C42.2096 1.34649 40.7102 0.961365 38.8392 0.961365C34.0662 0.961365 30.7019 3.36527 30.6758 6.81026C30.6448 9.35579 33.0723 10.777 34.906 11.6255C36.7881 12.4952 37.4192 13.048 37.4105 13.8245C37.3956 15.0109 35.9098 15.555 34.5221 15.555C32.5878 15.555 31.5604 15.2879 29.9739 14.627L29.3515 14.3438L28.672 18.3105C29.8025 18.8062 31.8884 19.2323 34.0537 19.2547C39.1311 19.2547 42.4308 16.8794 42.4656 13.1983C42.4867 11.1845 41.1984 9.64774 38.4069 8.38678C36.7173 7.56435 35.6837 7.01773 35.6936 6.18785C35.6936 5.45115 36.5707 4.66351 38.4615 4.66351Z" fill="white"/>
<path d="M55.5622 1.28561H51.8303C50.6712 1.28561 49.809 1.60116 49.2996 2.75653L42.1277 18.9988H47.2001C47.2001 18.9988 48.0275 16.8148 48.2151 16.3365C48.7704 16.3365 53.6987 16.3439 54.4006 16.3439C54.5448 16.9626 54.9895 18.9988 54.9895 18.9988H59.4706L55.5622 1.28561ZM49.6052 12.7088C50.0028 11.6914 51.5296 7.75567 51.5296 7.75567C51.5035 7.80413 51.9234 6.73075 52.1731 6.06362L52.4986 7.59169C52.4986 7.59169 53.4242 11.8231 53.618 12.7088H49.6052Z" fill="white"/>
</svg>
